<svg xmlns="http://www.w3.org/2000/svg" width="800" height="700" viewBox="450 850 650 600">
  <defs>
    <style>
      .wojewodztwo { stroke: #ffffff; stroke-width: 1.5; }
      .opolskie { fill: #f9a825; }
      .slaskie { fill: #4caf50; }
      .malopolskie { fill: #2196f3; }
      .miasto { fill: #c62828; stroke: #ffffff; stroke-width: 1; }
      .stolica { fill: #c62828; stroke: #ffffff; stroke-width: 2; }
      .label { font-family: Arial, sans-serif; font-size: 10px; fill: #1a1a1a; }
      .label-stolica { font-family: Arial, sans-serif; font-size: 12px; font-weight: bold; fill: #1a1a1a; }
      .label-woj { font-family: Arial, sans-serif; font-size: 16px; font-weight: bold; fill: #ffffff; text-anchor: middle; }
      .granica { fill: none; stroke: #333333; stroke-width: 2; }
    </style>
  </defs>
  <title>Mapa trzech województw - Śląskie, Opolskie, Małopolskie</title>
  <!-- WOJEWÓDZTWO OPOLSKIE -->
    <g id="wojewodztwo-opolskie" class="wojewodztwo opolskie">
      <path d="m570.53 910.43s-7.6412 0.80506-7.6412 0.80506-7.6417-0.84549-7.6417-0.84549l-1.0931-5.7797 3.5473-2.1916 2.1814-7.6969-3.2759-3.8603-6.5499 0.53269-3.0015 2.468-15.829 4.0851-7.0977-5.2461-10.369 9.3264s4.3686 5.5139 4.3686 5.5139-0.81644 8.2511-0.81644 8.2511l1.6386 3.5802-7.0956 2.1823-1.9098 2.7464 1.3657 3.3045-1.9082 7.973 3.2758 1.934-0.54497 3.0247-1.3646 0.27076 6.2784 3.8677 3.5471-3.292s2.4571 2.7575 2.4571 2.7575l6.0036-2.1851 4.3696 10.464-1.3632 4.9479 7.6423 3.0456 6.2769 0.28876 6.5512 6.0684s-2.7281 3.294-2.7281 3.294l11.736 6.6315 5.1849-0.26193-2e-3 -6.0511s3-7.4193 3-7.4193l6.0032-1.6348 2.9985-14.296 3.2739-3.2918-10.097-1.1269-2.4574-5.783s1.6353-8.7984 1.6353-8.7984l3.82-2.1905s-3.8229-9.9133-3.8229-9.9133l1.3632-5.4982-1.9103 3e-3" id="path4"/>
      <path d="m627.87 904.86 0.9555 8.8121 3.6903 2.3147s0.49718 9.2763 0.49718 9.2763l-5.9705 2.7905s0.0259 6.4938 0.0259 6.4938l5.065 0.92127 6.0444 15.762-6.8942 1.8641 0.0615 15.306s3.2522 7.8804 3.2522 7.8804l-3.6734 1.86 1.4025 5.5636-5.5064 3.7176s-3.2393-4.6336-3.2393-4.6336l-6.8775 6.0384s-0.46197-0.46323-0.46197-0.46323-7.8592-9.2656-7.8592-9.2656l-11.028 3.7249-0.51991-14.841c-6e-3 -1.3914 4.579-5.5717 4.579-5.5717l-19.859-18.064s-2.7497 2.7866-2.7497 2.7866l-3.163 14.383s-3.2174 0.93189-3.2174 0.93189l-9.2485-11.12 0.80738-27.833 2.2482-12.991 10.124-0.0144 15.145-10.224 12.87-3.7269-7e-3 -1.8555 8.307 6.0203 9.1937-2.3307s6.0097 6.9505 6.0097 6.9505l-2e-3 -0.46387" id="path6"/>
      <path d="m659.49 910.39-6.5478 4.9341-19.102-11.054 0.81667-11.001-0.81679 10.176-5.4571 1.9113s0.8202 8.5293 0.8202 8.5293l3.5477 2.4851s0.82018 8.8041 0.82018 8.8041l-6.2753 3.2845s-0.27149 6.3258-0.27149 6.3258l5.4575 1.1146 6.2786 15.695-7.3669 1.6309 3e-3 15.128s3.2756 7.7096 3.2756 7.7096l-3.8196 1.9158 1.6381 5.78-5.7293 3.5606s-3.2752-4.9592-3.2752-4.9592l-6.8203 6.0337 4.0938 4.6859s1.365 3.5789 1.365 3.5789-2.4547 4.9445-2.4547 4.9445l7.6405 3.5948s6.8224 6.8926 6.8224 6.8926l-0.81829 1.3733 13.915 2.2352 4.0949 14.861 6.8204-1.9077-0.81849-0.2773-3.2768-17.609s5.4557-6.036 5.4557-6.036l3.5465-1.9165s3.2734-3.8419 3.2734-3.8419l-7.0947-6.8937 0.27164-6.3249 4.6378-2.4632 1.636-6.3216 6.8204-3.0076 6.003 5.2406-6.2758-5.5162 5.9999-16.762s-4.0938-9.0866-4.0938-9.0866l9.8202-14.277s-1.3652-7.705-1.3652-7.705-0.81851 9.9e-4 -0.81851 9.9e-4l-13.37-6.3612-4.6408-15.691s-5.7301-0.84048-5.7301-0.84048l1.3652 7.4273" id="path8"/>
      <path d="m660.87 1049.8s-13.914-0.8599-13.914-0.8599-0.27214 4.6742-0.27214 4.6742l6.8228 13.766s-1.6364 2.7461-1.6364 2.7461-4.9118-6.0621-4.9118-6.0621l-3.2735 2.1918-4.9113-2.4869s-1.3615 15.121-1.3615 15.121 2.4565 6.6058 2.4565 6.6058-6.2736 7.409-6.2736 7.409 2.456 3.3054 2.456 3.3054l-8.7323-10.745-4.3646 3.2888-5.7299-2.489-5.7288 3.8361-5.1843-1.9379-0.8184 0.5484-2.4568-6.0559 4.0899-13.465-12.554-12.682s5.7281-8.5111 5.7281-8.5111l-1.3646-1.6532h0.81856l2.182-3.8446-3.8205-2.7602 9.8214-6.0256 6.5467-9.0592 9.0044 2.2231 1.0899-7.6981 6.8208-1.9079 1.9092-3.8453s13.915 2.2352 13.915 2.2352l4.095 14.861 6.8204-1.9077-0.81849-0.2773 12.823 4.9826s1.91 2.2048 1.91 2.2048-0.54565 7e-4 -0.54565 7e-4l0.54736 12.101 0.54569 0.2775-11.731 1.8956" id="path10"/>
      <path d="m548.74 1080.1-5.4576-0.038s3.8179-9.0662 3.8179-9.0662-3.003-5.233-3.003-5.233l9.5473-13.177 9.8254 7.7253 1.6345-10.997s13.371 1.4085 13.371 1.4085l10.368-5.1995 10.096 0.85s1.3646 1.6537 1.3646 1.6537-5.7281 8.5112-5.7281 8.5112l12.554 12.681-4.0899 13.465 2.4568 6.0559 0.81839-0.548-4.3648 3.2894-4.3658-1.6608 1.3629-6.3215-5.1845-1.9375s-5.1829 5.7621-5.1829 5.7621l1.3663 9.078-1.9098 0.5454s-17.19-3.0672-17.19-3.0672-3e-3 -5.2247-3e-3 -5.2247l-6.5493-2.7662 2.182-3.8446s-4.0931-0.8354-4.0931-0.8354l-3.001 1.9176 4.1e-4 -3.3-3.8204-1.1095-4.9107 3.838s-1.9104-2.4543-1.9104-2.4543" id="path12"/>
      <path d="m500.93 1033.4 9.5448-29.026 3.7004 4.5586 8.7456 0.4521 1.3983 4.33s1.8515 2.6229 1.8515 2.6229 5.9785-0.9356 5.9785-0.9356l1.8146-6.3799 9.1973-1.5198-0.95818-9.275 5.5126-2.3264-25.839-16.813-0.94343-5.6146s6.8992-0.94503 6.8992-0.94503l1.8082-7.9583 6.4485 1.3957s2.2742-6.555 2.2742-6.555l1.8408-2e-3 6.4446 0.45977s6.4692 6.5434 6.4692 6.5434l-2.7477 3.2795 11.533 7.0046 4.8224-0.23691-2e-3 -6.0511s3-7.4193 3-7.4193l6.0032-1.6348 3.0824-14.196 3.2061-3.7149 19.4 18.226s-4.5844 4.2176-4.5788 5.6214l0.98058 14.973 11.03-3.2902s7.8576 8.8806 7.8576 8.8806 4.6217 5.1411 4.6217 5.1411l1.3934 3.2737s-2.7419 4.683-2.7419 4.683l7.8385 4.2008s6.9294 7.0093 6.9294 7.0093l-2.7418 4.6828-6.892 2.3488-0.89021 7.4877-9.2093-1.8591s-6.4057 8.8988-6.4057 8.8988l-9.6377 6.0958 3.2301 2.3352-1.8235 4.2135-11.506-0.92-10.102 5.1608s-13.809-1.3845-13.809-1.3845l-1.3348 11.231-14.772-11.677s-2.3046-0.9326-2.3046-0.9326l-7.3777-3.7332-9.1879 3.7561-9.2111-1.859-1.8695-7.0165-4.5941 1.8781-9.6755-2.7944s-3.7008-4.6743-3.7008-4.6743" id="path14"/>
      <path d="m570.24 1027.7 3.5902 2.9815 2.4574 6.6068s3.0016 0.5576 3.0016 0.5576l-3e-3 -4.1253 6.8211-2.4585s0.54396-7.6994 0.54396-7.6994l-7.0955-4.1431 4.6381-3.2889s-2.1836-2.7557-2.1836-2.7557l-3.5471 1.091-7.3684-3.3188 0.90081-4.1319 0.31336-10.814-13.03-1.2442-1.0314 6.309s3.043 6.6911 3.043 6.6911l-0.42662 3.0803s-2.5597-2.9038-2.5597-2.9038l-7.9172 1.3862s-3.2674 4.4177-3.2674 4.4177l5.5306 1.9257s4.2694 0.8352 4.2694 0.8352-2.1834 5.0995-2.1834 5.0995l3.9966 2.1817 4.4515 2.2749 7.0559 1.4457" id="path16"/>
      <path d="m499.35 1088.5 1.371 21.454 6.0053 5.7894-6.8216 1.9084-0.81746 3.8484-3.5481-1.6588s-3e-3 -5.225-3e-3 -5.225l-6.55-1.666s-3.2736 3.8423-3.2736 3.8423l-2.4571-3.0312s2.4541-6.3194 2.4541-6.3194-3.0038-5.7829-3.0038-5.7829l-4.6384 3.0141-15.559-9.3888-0.82128-7.4276-7.0954 1.6328s-6.0065-6.0657-6.0065-6.0657l-7.3692-0.291-4.0953-3.5854s-3.821 0.01-3.821 0.01l-1.9109-0.8298s-4.367 0.01-4.367 0.01-2.7304-2.7573-2.7304-2.7573l-5.1869-2.4884-1.6382-1.3795 1.0912-1.6475 9.8232-7.4019 7.3712 4.9692 6.004-1.6355-0.27918-17.329 8.1824-16.208 7.915-0.5303-1.0923-1.6535 9.5527 0.033 1.6384 2.4796-4.092 5.7659 12.01 2.7808s14.731-22.243 14.731-22.243l5.4592 2.7645s-3.5465 4.3921-3.5465 4.3921l1.3672 8.5299 8.1867-2.1799s2.7307 5.2326 2.7307 5.2326l9.5525 2.7744 4.9117-1.638s2.458 6.6072 2.458 6.6072l8.7331 1.672 9.2772-3.5519 7.096 3.5927-7.0923 10.159s1.9119 6.3301 1.9119 6.3301l-9.5512-1.1239s2.1852 7.9812 2.1852 7.9812l-4.3661 0.2659-14.459 13.165-4.9125-1.6621-6.0023 4.6606-4.9105 1.0435" id="path18"/>
      <path d="m556.11 1103.7s-6.0012 7.1351-6.0012 7.1351l-5.73 0.5359s-0.2728-0.5504-0.2728-0.5504l-4.6407-7.1612-4.9121-1.387 2e-3 7.1498s-7.0928 7.1327-7.0928 7.1327l-4.9117 0.01-1.6378-1.9285s-3.8201 0.8157-3.8201 0.8157-6.5494-0.8411-6.5494-0.8411l-3.8199 1.6407-0.81871-0.2771 0.81856-0.2747-6.0053-5.7895s-1.371-21.454-1.371-21.454l4.9118-1.0881 6.0023-4.6609 4.9125 1.6626 14.459-13.166 4.3661-0.2659s-2.1852-7.9806-2.1852-7.9806l9.5512 1.1238-1.9119-6.3306 7.0923-10.158 2.1833 1.1054 4.9128 3.8625-9.5473 13.177s3.003 5.2331 3.003 5.2331-3.8179 9.0662-3.8179 9.0662 5.4574-0.01 5.4574-0.01 1.9107 2.4797 1.9107 2.4797l4.9107-3.838 3.8204 1.1096-4.1e-4 3.2999 3.0011-1.9177 4.0931 0.835-2.182 3.8447 6.5493 2.7661 3e-3 5.2248s17.19 3.0671 17.19 3.0671-1.9082 7.9701-1.9082 7.9701l-6.8207 1.9083-4.3661-2.2107-4.6377 3.2888s2.1843 6.3302 2.1843 6.3302-2.7275 4.118-2.7275 4.118l-1.9102-1.1046s-3.821-4.134-3.821-4.134l-3.2744-0.2828-4.641-9.0807" id="path20"/>
      <path d="m639.33 1108.7s2.1839 6.138 2.1839 6.138l3.0013 1.9591 1.0922 4.4627-10.912 0.251-15.822 7.2086-0.27143 5.8533s-25.917 5.7904-25.917 5.7904l-14.734-3.3812s-0.54743-6.1344-0.54743-6.1344-8.1856-0.8567-8.1856-0.8567l-5e-3 -10.315 3.2728-5.01-2.1847-6.4177 4.6375-3.3337 4.3662 2.2409 6.8206-1.9345 1.9077-8.0802 1.9098-0.5528-1.3668-9.2034s5.1826-5.8417 5.1826-5.8417l5.1846 1.9648-1.3625 6.4087 4.3659 1.6836 4.3646-3.3344 5.1844 1.9644 5.7285-3.8885 5.7301 2.5234 4.3645-3.3345 8.7329 10.894s6.8223 8.38 6.8223 8.38l-3.5437 3.895" id="path22"/>
      <path d="m560.75 1112.8 3.2744 0.2828s3.821 4.1346 3.821 4.1346l1.9102 1.1045s-0.54551 0.8233-0.54551 0.8233l4e-3 10.174 8.1856 0.8445 0.5471 6.0508s14.108 2.0134 14.108 2.0134l-0.18944 16.171-3.8168 12.364 0.5457 0.2774-6.0014 3.8351 1.0922 3.8518 4.3652-0.2663 1.0923 4.677-3.0008 1.0927-6.0027-1.9386-7.0926 4.3823-1.636 4.3951-11.186-0.3029-5.7316-7.712-5.1844-1.3874-9.8286-22.57-7.367 1.0821-10.919-14.6 5.4565-3.2869 10.369-0.7998s2.7269-6.5932 2.7269-6.5932l4.0929-0.01s2.7271-5.7679 2.7271-5.7679l-6.5502-5.5162s3.818-8.2402 3.818-8.2402l6.2758-0.5349s6.0012-7.1351 6.0012-7.1351 4.6389 9.1007 4.6389 9.1007" id="path24"/>
      <path d="m537.9 959.71s-1.8154 6.2313-1.8154 6.2313l-6.4485-1.3957-1.8082 7.9583-6.375 1.8115s0.41927 4.7481 0.41927 4.7481l25.839 16.813-5.5126 2.3264 0.95818 9.275-9.1959 1.8676s-1.8161 6.0321-1.8161 6.0321-5.9785 0.9356-5.9785 0.9356-2.3104-2.3159-2.3104-2.3159l-0.93938-4.637s-4.6019 0.01-4.6019 0.01-4.1436-0.4583-4.1436-0.4583l-3.8762-3.5638-5.5332 16.467-3.8371 11.233-7.8139 2.3297s-1.417-8.8106-1.417-8.8106 3.6626-4.6431 3.6626-4.6431l-5.5321-2.3116-15.095 22.284-11.977-2.7665 4.1171-6.0354-1.8506-2.3165h1.8409l-0.048-11.596s2.7364-6.0336 2.7364-6.0336-4.6216-4.6323-4.6216-4.6323l11.469-8.8285s-6.4703-6.4853-6.4703-6.4853l4.589-3.2531 10.119-1.405-4.6254-5.5602s0.46024-6.5e-4 0.46024-6.5e-4 2.282-4.6416 2.282-4.6416-2.3166-3.7079-2.3166-3.7079l9.1933-2.7953s-0.0268-6.4941-0.0268-6.4941-4.6216-4.6328-4.6216-4.6328l1.8218-4.6412 8.7618 4.1636 0.40477-13.453 5.5114-2.7903 8.2842-0.0118s-1.8524-2.7809-1.8524-2.7809 4.1402-0.46923 4.1402-0.46923l4.4358 3.3004 4.1045-2.6413 2.2265 2.1066 6.2342-1.5342 4.3696 10.464-1.3632 4.9479 5.8424 2.342" id="path26"/>
    </g>
    <!-- WOJEWÓDZTWO ŚLĄSKIE -->
      <g id="wojewodztwo-slaskie" class="wojewodztwo slaskie">
        <path d="m592.11 1139.4 0.0595 14.701-4.2013 11.951 7.101 4.5833 2.8755 10.562 6.6248 3.665s3.7605-4.1401 3.7605-4.1401l6.1488 2.7469s-1.398 4.5959-0.4537 4.5945l8.5038 1.3651 1.4495 8.2663 7.1001 4.5826 2.3385-5.5157-14.27-26.622s16.521-0.9436 16.521-0.9436l5.175-4.6016-9.2792-7.0045-4.5064 0.01-0.65953-6.337 4.4644-3.1882 10.859-0.016s3.2902-3.6802 3.2902-3.6802l6.6097-0.01 6.1192-4.6029-2.3898-7.3468-3.777 0.01s-2.3972-9.1847-2.3972-9.1847l-2.8401-1.8335-11.646 0.12-15.822 7.2086s-0.2534 5.1078-0.2534 5.1078l-25.557 6.4777-0.94805-0.9174" id="path194"/>
        <path d="m649.43 1166.9 8.4573 4.9689s0.81825-0.8227 0.81825-0.8227 0.27296 0.2777 0.27296 0.2777l6.8212 10.189 4.9102 1.1113 1.9102 5.5028-5.7282 1.0865-7.9095 7.679s4.3653 4.9589 4.3653 4.9589l-0.81775 3.8466-6.5468-0.036-11.185-7.7239-12.821-0.5799s-12.827-27.249-12.827-27.249 15.55-0.7879 15.55-0.7879l5.1824-4.6616 9.002-2.1782 0.54632 4.419" id="path196"/>
        <path d="m683.26 1193.1-5.1829-1.9368 4.6357-10.436s0.54551-9e-4 0.54551-9e-4l-1.3641-1.9279-8.729-1.3952s-2.4543 5.2178-2.4543 5.2178 1.9102 5.5033 1.9102 5.5033l-5.7282 1.0861-7.9095 7.679s4.3652 4.9588 4.3652 4.9588-0.27272 0.8242-0.27272 0.8242l3.0006 0.2829s1.9099 3.3032 1.9099 3.3032l8.7291 2.7695s-2.183-6.3277-2.183-6.3277 7.9102-0.8063 7.9102-0.8063 0.81727-8.794 0.81727-8.794" id="path198"/>
        <path d="m678.12 1161.7 11.972 3.2273 4e-3 0.9272 4.6161 4.1656s-1.3616 4.638-1.3616 4.638c4e-3 0.9271 4.6123 3.2382 4.6123 3.2382l-1.8234 4.1751-5.9776 0.4726s-1.3908-2.7795-1.3908-2.7795-5.5159 0.9356-5.5159 0.9356l-1.3872-1.8523-9.205-1.3769s-0.48015-5.0989-0.48015-5.0989l7.8104-2.3298s-1.4092-7.4156-1.4092-7.4156-0.46364-0.9266-0.46364-0.9266" id="path200"/>
        <path d="m676.47 1209.9-1.9372-7.1801s7.9102-0.8063 7.9102-0.8063 0.86041-8.713 0.86041-8.713l-5.2261-2.0178 4.6357-10.436s6.0568-0.9986 6.0568-0.9986l1.3927 3.2431s6.4357-0.9369 6.4357-0.9369l1.3634-4.1744-4.6105-2.7746s1.8125-6.9567 1.8125-6.9567l5.5122-1.8627 4.6086 2.3111 5.054-1.3984-1.398-4.6338 2.2816-4.6394 5.9884 2.309 5.9774-0.4725 7e-3 1.8543 11.964 1.3729 4.1465 1.8481-0.87108 12.518 14.232-6.5114-4.554 11.596s0.0306 7.8805 0.0306 7.8805-3.2031 4.1769-3.2031 4.1769-0.46171-0.4629-0.46171-0.4629l-9.1981 0.014-20.655 10.694 0.0186 4.6356-5.0574 0.4713 3.6776-0.4691-2.7814-5.5585-6.4482-2.3079-4.5921 1.8613-5.9975-4.6265-5.5139 1.3991 1.869 7.4143-9.1862 3.2592s-4.1433-0.9207-4.1433-0.9207" id="path202"/>
        <path d="m733.72 1139.6-9.8189 4.1003s-0.2726-0.5504-0.2726-0.5504-2.7273 3.5674-2.7273 3.5674-0.27224 6.5975-0.27224 6.5975l3.0005 1.657-0.54483 7.1467 15.001 1.9599s2.4543-5.7675 2.4543-5.7675l3.5456-1.6407-1.637-7.1522 1.3e-4 0.2735-6.2734-2.764-2.4556-7.4275" id="path204"/>
        <path d="m710.53 1167.4-5.4551 1.6369-4.3645-2.4848-5.7279 1.6358-0.27271 1.649-4.9104-3.8606s4.3634-7.9624 4.3634-7.9624-2.1826-3.3046-2.1826-3.3046-0.54655-7.9744-0.54655-7.9744 2.1818-3.294 2.1818-3.294l-4.3658-10.183 6.001-1.0854 4.3657 11.008 4.0915-0.01-2e-3 -8.7981-4.092-3.034 1.6356-8.7943 10.094 8.5476 3.8183-4.3896 3.5461 1.3829 4.9112 15.134s-2.7273 3.5673-2.7273 3.5673-0.27224 6.5975-0.27224 6.5975l3.0005 1.6566-0.27241 5.4978-6.0006 0.5356-6.2737-2.489s-2.4544 4.668-2.4544 4.668l1.9117 4.1439" id="path206"/>
        <path d="m649.43 1166.9-0.54635-4.4003 4.0915-2.7397 1.9088-4.9443-3.8196-2.4835s-0.54694-8.2496-0.54694-8.2496l5.728-4.6607s4.3657 6.3343 4.3657 6.3343l4.9103 0.2849-0.27241 3.5736 2.1825 1.3802 1.3635-3.0212 7.0921-2.7325s-1.0908 2.7468-1.0908 2.7468l-4.364 3.5639 0.54599 3.0258 4.0917-0.01s3.2745 7.9804 3.2745 7.9804 1.3649 7.7013 1.3649 7.7013l-10.911 2.9983-1.9103-5.7779s-5.1829 0.5377-5.1829 0.5377-3.8184 3.8399-3.8184 3.8399l-8.457-4.9513" id="path208"/>
        <path d="m651.34 1144.1-6.7594 0.01s-2.6908 3.2495-2.6908 3.2495l-10.813 0.4796-4.9459 2.7893 0.92911 6.9533 4.5064-0.01 11.75 8.3278 5.7616-1.8632 0.98296-1.8559 3.5939-2.7872 1.784-4.6389-3.616-2.7764s-0.48197-7.8812-0.48197-7.8812m8.2179 26.878-0.57949 0.3616 6.8212 10.189 5.0692 1.0229 2.6815-5.5672s-1.3701-4.634-1.3701-4.634l-3.1523 0.4683-2.1396-5.3288s-5.1829 0.5377-5.1829 0.5377-2.1475 2.9509-2.1475 2.9509m5.308-25.044 0.3831 3.696 2.1825 1.3802 1.9478-3.2284 6.748-2.7917-0.89021 2.783-4.4913 3.7157 0.46161 2.7811 4.506-0.01 2.7347 7.8774 11.724 2.3005s4.0278-6.9601 4.0278-6.9601-2.2657-3.242-2.2657-3.242l-0.48164-7.8808 2.2402-3.2486s-4.5442-9.7295-4.5442-9.7295l-4.0499 1.3968s3.1688 3.7045 3.1688 3.7045-4.5023 0.9339-4.5023 0.9339l-6.3194-2.7725-2.2402 3.2486-9.0195-1.8412-1.3206 7.8838" id="path210"/>
        <path d="m660.61 1145.8 3.8191 0.2818 1.6356-7.6946 8.7296 1.6706s2.4546-3.0182 2.4546-3.0182l6.5472 2.7652 4.3644-1.0894s-3.0011-3.8563-3.0011-3.8563l4.0916-1.3649-1.4e-4 -0.2736 6.0011-1.0853 4.3657 11.008 4.0915-0.01-2e-3 -8.7976-4.092-3.0345 1.6357-8.2445-10.094-6.0733s-2.9994 9.6161-2.9994 9.6161l-12.548-1.1302s3.2725-6.8658 3.2725-6.8658l-6.0015-0.288-6.8197 1.0832 9e-5 -5.774s4.3638-6.8634 4.3638-6.8634l-5.7294-3.8639-1.0918-4.1269 7.9116 2.219-1.0921-6.3267 7.9108-2.7303s0.54423-9.898 0.54423-9.898-4.0927-4.9594-4.0927-4.9594l4.3635-10.163-4.0926-3.3102s4.6364-9.3381 4.6364-9.3381-1.9103-4.1294-1.9103-4.1294l-5.1837-2.2127-11.731 1.8957-13.914-0.86-0.27215 4.6743 6.8228 13.766s-1.6365 2.7462-1.6365 2.7462-4.9118-6.0623-4.9118-6.0623l-3.2735 2.192-4.9113-2.487-1.3615 15.121s2.4565 6.6056 2.4565 6.6056-6.2736 7.4092-6.2736 7.4092 2.456 3.3058 2.456 3.3058 6.8219 8.2656 6.8219 8.2656-3.5459 3.8411-3.5459 3.8411l2.1836 6.0543 3.0012 1.9325 1.092 4.4019 1.91 1.9311s4.0636 9.7754 4.0636 9.7754 2.7128 0.034 2.7128 0.034l1.6832 6.9707s0.27279-4e-4 0.27279-4e-4 4.3665 6.3609 4.3665 6.3609" id="path212"/>
        <path d="m690.89 1109.3 3.5465 2.208-3 4.9421-3.2721 10.165-12.548-1.1301 3.2725-6.8658-6.0015-0.2881-6.8197 1.0834 9e-5 -5.7741s4.3638-6.8634 4.3638-6.8634l-5.7294-3.8633-1.0919-4.1275 7.9116 2.219-1.0921-6.3268 9.8203-3.5504-0.27225 4.6738 10.913 6.9004s-6e-5 6.5978-6e-5 6.5978" id="path214"/>
        <path d="m749.26 1065.2s-0.54595-5.5007-0.54595-5.5007l0.27262-1.0988-4.6372-1.1115-4.9095 4.6622-5.1833-7.4372s0.81759-8.7972 0.81759-8.7972l-10.366-5.2505-7.9107 1.6301-8.1848-10.195s-4.6367 8.2381-4.6367 8.2381l8.457 3.046s-4.6367 7.1382-4.6367 7.1382l-11.732-10.754-5.7291-1.6643-4.3647 1.6392-14.46-4.1615 0.54737 12.101 5.7294 2.4892s1.9102 4.1295 1.9102 4.1295-4.6364 9.338-4.6364 9.338l4.0926 3.3102-4.3634 10.163s4.0927 4.9594 4.0927 4.9594-0.54424 9.898-0.54424 9.898l1.9095-0.8207s-0.27226 4.6738-0.27226 4.6738l10.64 6.6254 3.2731-3.0166s-0.27376-6.3249-0.27376-6.3249l8.456-3.8285s-2.1828-4.4051-2.1828-4.4051l7.9105-2.1802 9.8206 4.4233 1.3633-6.5956 7.3649-0.2562 7.6371-6.305 4.3643 0.286s6.0004-7.1344 6.0004-7.1344-2.1824-3.0298-2.1824-3.0298l7.0924 1.1163" id="path216"/>
        <path d="m701.75 1088.4 0.45999-7e-4s1.8746 8.807 1.8746 8.807l4.6071 1.848 0.0129 3.2456h-0.91995l-2.278 5.5671 1.8472 1.8518s-6.4123 6.964-6.4123 6.964-0.44175 4.6371-0.44175 4.6371l5e-3 1.3909-9.2215-5.5503-2e-3 -0.4637 3.2016-4.6411-3.689-2.3129s-0.0275-6.9549-0.0275-6.9549 2.7472-3.2495 2.7472-3.2495-0.0259-6.4913-0.0259-6.4913l8.2652-3.7211-4e-3 -0.9273m-0.32513 34.311s-0.45998 8e-4 -0.45998 8e-4 0.45998-8e-4 0.45998-8e-4" id="path218"/>
        <path d="m726.17 1100-1.3962-4.1708-5.5269-1.8468s-1.8671-6.9522-1.8671-6.9522l1.3545-6.4932 7.3596-0.011s2.3306 7.879 2.3306 7.879h-3.2198l-0.91269 1.8558 10.606 6.9397h1.3799l-2.2817 4.6397-4.605-1.3843-3.2215-0.459m11.488-2.7983h-0.9199 0.9199" id="path220"/>
        <path d="m701.25 1116.5-0.81774 5.2218 0.81854 1.6516-9e-4 -0.8248 10.094 8.5477 3.8183-4.3897 3.5461 1.3835s-0.27292-0.2779-0.27292-0.2779l6.8189-2.7332-1.3638 0.5467s-3.8197-9.3574-3.8197-9.3574l4e-5 -0.5499-3.8187 0.01s-2.4557-6.8796-2.4557-6.8796 1.909-4.3944 1.909-4.3944l-2.4552-2.2058s-5.1827 0.01-5.1827 0.01-1.9088 5.4946-1.9088 5.4946 1.6369 1.9288 1.6369 1.9288-6.5453 6.825-6.5453 6.825" id="path222"/>
        <path d="m720.89 1105.2-1.6368-1.3788s-3.546 0.5414-3.546 0.5414l-1.909 4.3944 1.909-4.3944-2.4552-2.2057-4.0916 0.01-0.54586-3.0259-4.6375-1.936-1.6377-8.5277-0.54557-0.2775 0.27279 0.8255s-2.1828-4.4046-2.1828-4.4046l7.9106-2.1802 9.5478 4.4227s1.9102 6.8785 1.9102 6.8785l5.4556 1.9381s1.3643 4.4027 1.3643 4.4027l-0.54554-0.2773s-4.6366 5.199-4.6366 5.199" id="path224"/>
        <path d="m713.8 1108.8 2.4557 6.8797s3.8187-0.01 3.8187-0.01 0.27176-9.8973 0.27176-9.8973 0.54548-0.5488 0.54548-0.5488l-1.6368-1.3789s-3.546 0.5416-3.546 0.5416-1.9089 4.4092-1.9089 4.4092" id="path226"/>
        <path d="m723.9 1125.6s-3.8197-9.3574-3.8197-9.3574l0.27189-10.447s5.1821-5.7613 5.1821-5.7613l4.3643 0.2858s0.2729 0.2732 0.2729 0.2732l-0.81776 6.0466s1.9096 3.029 1.9096 3.029l0.27275 1.6506-1.909 4.1194-3.5461-1.9334-0.81722 11.546-1.3639 0.549" id="path228"/>
        <path d="m740.53 1110.8s-0.2729-0.2731-0.2729-0.2731l-1.6362 4.1199h-3.2731l-3.8189-3.3085-0.27276-1.6502-1.9096-3.0289 0.81775-6.047s4.0916 0.8346 4.0916 0.8346l2.4546-4.1177 3.8187 0.282-2.1813 10.167 1.9094 1.9292s0.27274-5e-4 0.27274-5e-4l-1.1e-4 1.0881" id="path230"/>
        <path d="m738.62 1114.6s1.6362-4.1202 1.6362-4.1202 1.9095 2.4795 1.9095 2.4795l4.9097 1.3866s1.9095 3.0288 1.9095 3.0288l-4.9084 14.834 3.5466 11.28s-5.1817 6.3111-5.1817 6.3111l-6.2734-2.7644-2.4554-7.4289-9.8189 4.1003-5.4568-15.959 6.8189-2.7328 0.81721-11.546 3.5461 1.9333s1.909-4.1193 1.909-4.1193l3.8189 3.3085 3.2732 0.01" id="path232"/>
        <path d="m747.63 1143.8 6.8187 1.6663s3.5452-7.1395 3.5452-7.1395l6.0003 0.2879s-8.4557-9.9178-8.4557-9.9178l-0.27284-1.9251s-0.54552 8e-4 -0.54552 8e-4l-4.0918-9.0828-1.9093-0.5544s0.27287 0.2732 0.27287 0.2732l-4.9084 14.834 3.5465 11.281-1e-5 0.2762" id="path234"/>
        <path d="m747.5 1143.5 6.906 1.8442 3.6524-6.9592s5.9788-0.01 5.9788-0.01h-1.3797l0.92162 0.4622s4.617 4.6291 4.617 4.6291l0.95566 9.2703-2e-3 -0.4636-5.465 13.915-9.189 2.3317s-1.8288 2.7842-1.8288 2.7842l-14.232 6.5114-0.0492-12.516-3.2249-1.386h2.7595l2.7379-5.5671 3.214-1.3956-1.8686-7.4147s5.4956-6.0349 5.4956-6.0349m21.652 9.2398" id="path236"/>
        <path d="m666.79 1205.8 13.817 4.6145 9.1862-3.2592s-1.869-7.4142-1.869-7.4142l5.5139-1.3993 5.9975 4.6265 4.5921-1.8613 6.4482 2.308s2.7814 5.5584 2.7814 5.5584-3.6776 0.4693-3.6776 0.4693-2.7359 6.0304-2.7359 6.0304l0.0492 12.516 11.089 12.962 5.986 1.8447 0.9325 3.2432 4.1391-0.01 2.3176 4.6314-7.3148 11.136c-0.45627 0.9278 5.9948 4.1619 5.9948 4.1619l1.3724-1.8562 3.2589 10.192-6.8186 20.404-3.6537 6.4946-7.358 0.012-10.587-2.3001s4.5753-6.0327 4.5753-6.0327l-4.6208-5.5544 0.89432-6.4904s-2.7867-6.948-2.7867-6.948l-3.2777-14.827-10.115 0.9432-3.2469-6.9477-10.128-2.3017-10.691-28.26 5.492-6.962s-5.985-1.3814-5.9887-2.3086c-0.46364-0.9264 1.8086-7.8836 0.43058-7.418" id="path238"/>
        <path d="m723.97 1243.2-5.9842-1.3812s-11.551-13.424-11.551-13.424l-0.0492-12.516s2.7377-5.5669 2.7377-5.5669 5.0556-0.9349 5.0556-0.9349-0.0161-4.172-0.0161-4.172l21.115-10.694 8.7382-0.013 6.4494 2.7715 6.4313-1.8641 3.2606 10.656s-5.4827 9.2792-5.4827 9.2792 2.3102 2.7775 2.3102 2.7775l5.9658-3.2539 10.588 2.7648 4.6738 19.46-7.8194-0.4513-7.841-6.0133s-4.6239-6.4821-4.6239-6.4821l-5.506 3.2533-0.88556 8.8083 1.8557 4.1687-6.8801 4.6459 3.6916 3.2387s-2.7394 5.1029-2.7394 5.1029-8.7341 0.9409-8.7341 0.9409l-9.1525 11.602s-6.4512-3.2341-5.9967-4.6254l6.8568-10.672s-1.8577-4.6322-1.8577-4.6322l3.1976-5.5673 7.3583-0.011 5.5042-3.7169 4.5898-2.3247s-3.2318-3.2396-3.2318-3.2396 3.6611-4.6409 3.6611-4.6409l-2.3499-12.975-6.8984 0.011s-2.3085-2.3141-2.3085-2.3141l-4.1265 3.2511s-1.3616 4.6376-1.3616 4.6376l-4.59 2.3248s-4.112 6.9595-4.112 6.9595l4.6135 3.701-4.5556 11.132" id="path240"/>
        <path d="m724.45 1246.5-0.93068-2.7796 4.5556-11.132-4.6135-3.7011 4.5719-6.9601 4.0937-2.6547s1.858-4.3077 1.858-4.3077l3.6666-3.2505 2.7666 1.8499 6.8984-0.011 2.3499 12.975-3.6611 4.6409 3.2336 3.7031-4.5898 2.3248-5.506 3.2534-7.3583 0.011s-3.6538 6.495-3.6538 6.495-3.681-0.4578-3.681-0.4578" id="path242"/>
        <path d="m800.81 1261.9s1.3638 14.844 1.3638 14.844l-4.3629 0.2666s-6.8169 7.9551-6.8169 7.9551-5.7262 6.3081-5.7262 6.3081l0.27303 5.2226-15.271 1.0649-5.4536 5.2098 8.6e-4 12.917-4.6356 3.0127s-0.27241 6.5956-0.27241 6.5956-11.998 3.2714-11.998 3.2714l-5.4544-4.6842s-5.7263 6.583-5.7263 6.583l-10.636-0.2975 0.8169-13.465-3.5468-15.399 3.8175-6.038 6.8162-20.324s-4.4186-8.976-4.4186-8.976l9.1525-11.602 8.7341-0.9409s2.3974-4.7438 2.3974-4.7438-3.0498-3.3933-3.0498-3.3933l6.8176-4.9319s-1.9093-4.1274-1.9093-4.1274 0.81757-8.5193 0.81757-8.5193l5.7269-3.2852s4.3639 6.6072 4.3639 6.6072l7.909 5.7902 7.6359 0.5675-0.2728-1.1 9.5447 2.7706 4.0904-1.6397 1.9089 1.3787s3.818 8.529 3.818 8.529l-10.089 10.147 5.454 4.6849 8.1805-0.2587" id="path244"/>
        <path d="m742.16 947.18 7.6379-6.0304 1.6364-5.7714s10.367 5.5275 10.367 5.5275l5.1828-2.4618s0.81794-8.5233 0.81794-8.5233l9.2746-3.2762 3.5463 3.0346-1.9093 5.2202 5.4558 4.6895 4.3644-1.0889 7.0923 5.794 3.2735 11.559s1.9096 9.3551 1.9096 9.3551l6.819-0.25921 8.4554-4.6532s6.8188 7.1676 6.8188 7.1676l5.7278 0.28937s2.1819 6.8805 2.1819 6.8805l6.2731 2.2157 5.7276-3.8348 7.0911 2.4928s5.7271 8.5392 5.7271 8.5392l-0.27299 3.574-5.4546-1.3889s-3.0001 4.3918-3.0001 4.3918 1.909 3.3045 1.909 3.3045l-5.7275 4.1102-3.2727-2.7582-4.9093 3.5625 3.8182 6.0589s-2.3e-4 3.5744-2.3e-4 3.5744l2.7272 3.5815 2.7271 12.38-2.7273 2.7425-4.0908-3.5846-3.8182-2.4842-7.0911 1.632-3.0001-1.9327-6.5457 2.7334-4.3639-1.9359 3.2729-2.4666-1.091-4.402-5.7276 3.01-3.8185-1.6595-11.728-0.03-0.54541 3.5734s-3.273 0.8169-3.273 0.8169-5.4554-6.6133-5.4554-6.6133l-9.5467 0.2494-8.7287-2.4974-2.7275 3.8432s-5.1827 0.537-5.1827 0.537l-2.1819 4.3942 1.0914 4.6772-10.911 1.0725-5e-5 0.825-2.1823-1.6553-4.3643 2.7385-1.0916-6.0521-10.366-1.4012 7.3e-4 -6.8746-9.2758-7.9985s0.81747-9.3481 0.81747-9.3481l-4.092-0.28674-6.2744 1.3588 2.9999-8.7924 5.4556-4.9364 8.1841 0.57078 3.5461-3.0158 6.5472 0.29281-2.9997 12.093 9.8212 9.3751s2.4548-3.8439 2.4548-3.8439 7.9106-0.80483 7.9106-0.80483 6.5466-9e-3 6.5466-9e-3l6.8185-16.207-6.8196-1.9425 1.091-3.0226s-2.7281-4.682-2.7281-4.682 1.6365-2.7456 1.6365-2.7456-1.9097-2.755-1.9097-2.755-3.819 0.54019-3.819 0.54019-4.0915 4.9396-4.0915 4.9396-4.3647-0.56143-4.3647-0.56143l-2.455 1.0939 1.6364-4.1212-3.8199-10.46 5.7283-5.2109-4.3664-6.0316" id="path714"/>
        <path d="m757.98 972.53s1.6365-2.7461 1.6365-2.7461-1.9097-2.7549-1.9097-2.7549-3.819 0.54011-3.819 0.54011-4.0915 4.9395-4.0915 4.9395-4.3647-0.5609-4.3647-0.5609l-7.9107 3.8297-4.636 17.863 9.8212 9.3752 2.4548-3.8438s7.9106-0.80492 7.9106-0.80492 6.5466-9e-3 6.5466-9e-3l6.8185-16.207-6.8196-1.9424 1.091-3.0222-2.728-4.6566" id="path716"/>
        <path d="m744.35 1057.5-0.27293-0.2778-1.9101-9.0789s4.9096-4.9372 4.9096-4.9372-4.638-9.911-4.638-9.911l4.3644-1.3637-0.81878-5.777-5e-5 0.8254-2.1823-1.6557-4.3643 2.739-1.0916-6.0526-10.366-1.4008 7.3e-4 -6.875-9.2758-7.9985 0.81749-9.3481-4.092-0.28673-5.456 1.0864-1.9096 0.54505-8.7302-3.0478s-1.9102-4.1299-1.9102-4.1299l-5.4562 0.26223-19.373-16.826-6.8204 3.0077s-1.636 6.3216-1.636 6.3216l-4.6378 2.4637s-0.27165 6.3248-0.27165 6.3248l7.0947 6.8937s-3.2734 3.8415-3.2734 3.8415l-3.5465 1.9164-5.4557 6.0366 3.2768 17.609 12.823 4.9826s1.91 2.2047 1.91 2.2047l13.914 4.16 4.3647-1.6391 5.7291 1.6643 11.732 10.754s4.6367-7.1381 4.6367-7.1381l-8.457-3.0461s4.6367-8.2381 4.6367-8.2381l8.1848 10.195 7.9107-1.6302 10.366 5.2505s-0.81757 8.7973-0.81757 8.7973 5.1833 7.4372 5.1833 7.4372l4.9078-4.6599" id="path718"/>
        <path d="m826.99 1023s-4.6365 4.9378-4.6365 4.9378l0.81824 4.1264-11.455-3.0534-6.273 5.2086-2.4545 7.6927-9.8189-4.1493-6.0004 4.1098 1.637 14.027-6.8186 2.7326-4.6369-3.0362s1.091-0.5468 1.091-0.5468l-7.6372-1.9437-7.6371 2.1806-4.9099-2.4868-7.0918 1.6322s-2.1818 4.119-2.1818 4.119l-4.91-1.3875-1.9101-9.0785s4.9096-4.9371 4.9096-4.9371-4.638-9.911-4.638-9.911l4.3644-1.3641-0.81878-5.7766 10.911-1.0725-1.0914-4.6772s2.1819-4.3943 2.1819-4.3943l5.1827-0.537s2.7275-3.8426 2.7275-3.8426l8.7287 2.4969 9.5467-0.2494s5.4554 6.6132 5.4554 6.6132 3.273-0.8168 3.273-0.8168l0.54542-3.5734 11.728 0.03 3.8185 1.6594 5.7276-3.01 1.091 4.4025-3.2729 2.4661 4.3639 1.936 6.5457-2.7334 3.5455 2.2064" id="path720"/>
        <path d="m802.44 1094.5s0.54565 8.799 0.54565 8.799-18 0.7811-18 0.7811l-11.182 7.3959-7.0914-2.217-6.0007-3.8635-4.9095 0.262s-1.364-4.1276-1.364-4.1276l4.9092-5.2118s-0.81887-9.6252-0.81887-9.6252l7.6369-4.1054 0.2724-7.6977 7.6372 2.4934s4.3643 9.0839 4.3643 9.0839 14.455 7.4586 14.455 7.4586l9.5456 0.5743" id="path722"/>
        <path d="m743.79 927.94-4.9103 1.9124-8.185-7.9976-11.459-6.3561s-3.8186 8.7912-3.8186 8.7912l-8.458-4.1479-10.095 0.79881 0.5459 1.9269s-14.733 2.9869-14.733 2.9869l1.3652 7.705-9.8202 14.277s4.0938 9.0871 4.0938 9.0871l-6 16.762 19.646 17.102 5.4562-0.26232 1.9102 4.13 8.7302 3.0478s1.9096-0.54565 1.9096-0.54565l-0.81837 0.27467s2.9999-8.7924 2.9999-8.7924l5.4556-4.9363 8.1842 0.57121 3.5461-3.0162 6.5472 0.29281 1.6363-5.7712 5.4557-2.7358s1.6364-4.1211 1.6364-4.1211l-3.8199-10.461 5.7283-5.2103s-4.3652-6.0618-4.3652-6.0618l6.8196-5.4827-1.6374-7.7054s-3.5469-6.0613-3.5469-6.0613" id="path724"/>
        <path d="m774.18 1111.2-0.44917 2.7824s6.4637 6.481 6.4637 6.481l6.4314-1.8638s5.9537-6.499 5.9537-6.499-0.0338-8.8084-0.0338-8.8084l-7.3566 0.474-11.009 7.4338m-34.04-1.3418-1.8488-2.3154 2.26-10.203s-5.0595 0.01-5.0595 0.01l-10.606-6.9396 0.91269-1.8559h3.2197l-2.7906-7.8782 7.7923-6.966 4.6014 0.4573s5.9524-6.9633 5.9524-6.9633l-2.3124-3.2425 6.9048 1.3814-0.0218-5.564s2.2782-5.5672 2.2782-5.5672l6.8939-1.4006 4.6085 2.312 7.8118-1.8656 7.826 1.8439-4.5904 2.3246-0.89837 5.5651 3.2302 2.7775s4.635 9.2664 4.635 9.2664l-6.4264 3.2546-4e-3 -0.9273-7.8296-2.7709s-0.42944 7.8826-0.42944 7.8826l-7.8027 4.1838 0.95581 9.2715s-4.5778 5.5701-4.5778 5.5701l0.93426 3.7077-4.5849 3.7156-11.035 0.9431" id="path726"/>
        <path d="m750.62 1117.7 4.0918 9.0823 6.8187 0.036s3.5453-6.8643 3.5453-6.8643l12.273 0.029s1.9091-0.5455 1.9091-0.5455l-5.7277-5.2375 0.54533-2.7477s-0.27272 4e-4 -0.27272 4e-4l-7.0914-2.2166-6.0006-3.8639-4.9095 0.262s-0.27258-0.5504-0.27258-0.5504l-4.6365 3.8381s-10.365 0.7994-10.365 0.7994l-7e-5 1.0997 1.6367 2.2036 4.9097 1.3865s1.6367 2.7535 1.6367 2.7535l1.9094 0.5354" id="path728"/>
        <path d="m769.05 1153.3-1.7694-10.238s-4.617-4.6291-4.617-4.6291h0.91983l-8.7779-10.186-7e-3 -1.8544s5.979-0.01 5.979-0.01 3.6524-6.9595 3.6524-6.9595l12.418-0.018s1.8378-0.4663 1.8378-0.4663 0.92339 0.9259 0.92339 0.9259h0.9198l5e-3 1.3907s14.709 5.9347 14.709 5.9347 1.7528 0.827 1.7528 0.827l-2.7271 3.2922-11.633 6.0727s1.5422 2.9756 1.5422 2.9756-0.2725 4.9477-0.2725 4.9477l-10.909 2.723 0.54564 3.5753-4.4921 1.6979m10.097-33.898-2.3085-2.3146 2.3085 2.3146" id="path730"/>
        <path d="m801.35 1094.4h1.0909l-9.5457-0.5734s-14.455-7.4586-14.455-7.4586-3.8188-7.9831-3.8188-7.9831l6.273-3.5585s-4.6371-9.0851-4.6371-9.0851l-3.2732-2.7574 0.81801-5.4974 4.6367-2.4629-1.091 0.5469 4.6369 3.0361 6.8186-2.7326-1.637-14.027 6.0004-4.1099 9.8189 4.1493 2.4545-7.6927 6.273-5.2087 11.455 3.0535-0.81823-4.1265s4.6365-4.9377 4.6365-4.9377l-0.5455-0.2774 7.0911-1.6321 3.8182 2.4843 4.0908 3.585 2.7273-2.743-2.7271-12.38-2.1818-2.7555 12 0.03 12 2.5053s-6.8182 7.6813-6.8182 7.6813 1.6361 4.6783 1.6361 4.6783l5.4543 0.2894s1.3633 7.4271 1.3633 7.4271-5.4542 0.8114-5.4542 0.8114l-10.364 11.522s1.0908 3.5768 1.0908 3.5768l16.09 5.264s1.9087 6.0536 1.9087 6.0536l5.4539 2.2127s2.7267 4.6809 2.7267 4.6809l-10.908 0.5224s-2.4544 2.7434-2.4544 2.7434 4.363 4.4097 4.363 4.4097-7.9084 0.8053-7.9084 0.8053l-3.2725 1.6417-1e-4 -0.2737-21.271-1.1522-14.181 8.213-11.182-2.502-4.0909 4.3888s-4.0906 9.6162-4.0906 9.6162" id="path732"/>
      </g>
      <!-- WOJEWÓDZTWO MAŁOPOLSKIE -->
        <g id="wojewodztwo-malopolskie" class="wojewodztwo malopolskie">
          <path d="m859.44 1074.5s7.9084-0.8053 7.9084-0.8053-4.363-4.4096-4.363-4.4096l2.4544-2.743 10.908-0.5229s-2.7267-4.6805-2.7267-4.6805l-0.54541-0.2775s3.5453-4.665 3.5453-4.665l10.908 4.701 3.8178-2.4651s3.8174 4.4086 3.8174 4.4086 15.543-0.5118 15.543-0.5118l9.543 7.1719-4.9e-4 6.0478 10.905 20.37-5.9987 1.9097-0.54604 7.6957-8e-5 -0.2735-17.451 6.0054-7.3618-3.3167s-17.451 3.531-17.451 3.531-3.2723 3.2909-3.2723 3.2909l-6.8172-0.036s-2.7271 4.3916-2.7271 4.3916l-2.1814-3.304-0.54538 0.2744 1.3637-6.8693-12.816-6.3544 3.2729-16.762-2.454-10.178 3.2726-1.6225" id="path38"/>
          <path d="m 802.44158,1094.3976 h -1.0909 c 0,0 4.0908,-9.6128 4.0908,-9.6128 0,0 4.0909,-4.3889 4.0909,-4.3889 l 11.182,2.502 c 0,0 14.181,-8.2129 14.181,-8.2129 l 21.271,1.1522 2.454,10.453 -3.2729,16.762 12.816,6.3544 -1.3637,6.8693 -6.5446,0.8086 c 0,0 -2.7271,3.8424 -2.7271,3.8424 0,0 -14.18,-7.7322 -14.18,-7.7322 l -11.454,-0.3033 -4.6361,23.906 -11.726,-0.8528 c 0,0 -4.9089,-6.8845 -4.9089,-6.8845 l -14.181,-1.4089 -15,-5.8097 -0.27264,-1.65 5.4546,-1.6366 c 0,0 5.7271,-6.584 5.7271,-6.584 0,0 -5.8e-4,-8.523 -5.8e-4,-8.523 l 10.636,-0.247 c 0,0 -0.54545,-8.8046 -0.54545,-8.8046" id="path40"/>
          <path d="m769.17 1152.9 4.3636-1.3638-0.54564-3.5753 10.909-2.723s0.2725-4.9477 0.2725-4.9477l-2.4547-2.7552 12.545-6.2931 2.7271-3.2922 13.636 1.1326s4.9089 6.8848 4.9089 6.8848l-3.5453-0.2822-0.27223 21.991 13.635 17.35-10.908 4.0975-4.3632-1.1096s6e-5 -0.8246 6e-5 -0.8246l-4.0906-2.7589-13.09 0.7939-10.091-5.7969-6.2726 1.3598-3.2727-1.1076s2.4544-3.2927 2.4544-3.2927l-5.1824-12.109-1.3635-1.3789" id="path42"/>
          <path d="m921.06 1152.2-5.1807 3.5609-5.998-4.6873-6.2708-4.1378-1.3631-2.4774 3.8174-1.64 2e-3 -4.398s-3.2715-6.6051-3.2715-6.6051l4.0902-3.0139-5.453-4.4115-2.181-5.7781 8.7259-6.8508-0.81799-0.277s17.451-6.0055 17.451-6.0055l7.6342 2.4927s-2.1821 8.2412-2.1821 8.2412l9.2692 7.7196-2.4545 6.5911 5.7252 3.0374 25.628 1.4359 4.9078-3.8362 8.451 1.9445 2.4534 1.1051-3.2716 1.0917-13.633 12.336-12.268 1.6196s0.2728 0.5506 0.2728 0.5506-14.45-0.8592-14.45-0.8592l-0.54581 4.3967-7.0888 2.1816 4e-5 -0.5498-4.6348-1.6603-7.7e-4 -2.7485 1.9087-1.9195s-3.2713-4.9556-3.2713-4.9556l-4.3625 1.0892-1.637 7.4177" id="path44"/>
          <path d="m852.15 1210.6s-12.441-6.9333-12.441-6.9333l-1.878-10.194-5.9724 1.3996s-5.5532-9.2619-5.5532-9.2619l-8.7422-1.3773-3.7018-6.0203 10.641-3.9248s-13.02-16.931-13.02-16.931l0.37471-22.252 15.181 1.3684 4.5067-24.113s11.496-0.017 11.496-0.017l14.287 8.3236s2.7432-4.1761 2.7432-4.1761l6.8939-0.9371 2.3114 3.2416s2.2816-4.639 2.2816-4.639l6.8972-0.01 3.2065-3.2496 17.46-3.2701 8.3769 4.2631-8.2415 6.7396 1.3048 5.2195 5.5348 4.6274s-3.2958 3.3566-3.2958 3.3566 3.2715 6.6051 3.2715 6.6051l-2e-3 4.398-3.8174 1.64 0.92575 2.0349 6.2195 4.2097 5.9942 4.6262 5.0435-3.7155 1.8114-7.419s4.5941-0.9338 4.5941-0.9338l3.4949 5.3878-1.9087 1.9195-0.38377 2.2357 4.8191 2.4993-1.2414 4.8729-7.8952-1.1308s-3.2491 3.6924-3.2491 3.6924l-8.2566 5.1109-3.7023-6.4835 3.6556-6.0311-2.3075-2.3141-5.0627-1.383c-1.3793 0-3.6626 4.177-3.6626 4.177l-5.9858-2.3086-20.22 2.8112-3.2308-3.2399s-2.7466 3.2488-2.7466 3.2488-2.3148-4.1684-2.3148-4.1684h-2.7589s-5.4897 7.4248-5.4897 7.4248l-4.5999-0.4567s-4.5806 4.6422-4.5806 4.6422l4.6473 12.972s-4.5946 0.934-4.5946 0.934l1.8638 6.4864s6.4373-0.01 6.4373-0.01l3.2431 6.4843 5.9686-2.3267 7.3618 1.3794 5e-3 1.3904s3.2307 3.2396 3.2307 3.2396l4.145 1.8476-0.9056 3.7093-3e-3 -0.927-5.0523 1.3982-9.1677 7.4299s-6.4703-8.7964-6.4703-8.7964l-7.3181 10.208-0.45454 1.3911" id="path46"/>
          <path d="m874.14 1189.7-7.3618-1.3794-5.9686 2.3267s-3.2414-6.0207-3.2414-6.0207-6.4373 0.01-6.4373 0.01l-1.8638-6.4864 4.5928-1.3976-4.6473-12.972 4.5806-4.6422 4.6016 0.9202s5.4879-7.8883 5.4879-7.8883 2.7606 0.4595 2.7606 0.4595l2.3148 4.1683 2.7448-3.7123s3.2308 3.2399 3.2308 3.2399l20.22-2.8112 5.9858 2.3086s2.285-3.7115 3.6643-3.7135l4.6029 1.3837 2.7655 1.8499s-3.6539 6.4946-3.6539 6.4946l4.6236 6.9456s-2.2884 2.7844-2.2884 2.7844-12.414 0.018-12.414 0.018l-7.3442 3.2556-1.813 6.9553s-7.353 0.9381-7.353 0.9381l0.0224 6.0255-4.5978 0.01-2.3042-1.3871-0.91084 2.319" id="path48"/>
          <path d="m881.84 1182.7 7.2121-1.09s2.2198-6.9127 2.2198-6.9127l7.1705-3.1645 12.801 0.4442s1.6647-3.0398 1.6647-3.0398-0.55467-0.8316-0.55467-0.8316l8.1244-5.4124s3.2491-3.6924 3.2491-3.6924l8.5983 1.1268s3.6048 6.9262 3.6048 6.9262l3.3262 14.397-5.2706 5.2452-0.55514 3.0422-7.2113-1.1232-0.83401 14.386-8.3225 12.985s-11.372-3.6233-11.372-3.6233l-3.6054-3.3285-4.1605 0.01-1.3862-6.6441-6.1021-1.6745-8.0444 3.0254-2.7735-4.1573 0.83249-3.3185-4.1607-1.67-3.3284-3.328-0.27707-1.6611s0.27725 4e-4 0.27725 4e-4l1.9419-1.6558 2.219 0.5589 4.4382 0.2852s0.27793-6.1019 0.27793-6.1019" id="path50"/>
          <path d="m902.79 1209.3s-4.0896 0.01-4.0896 0.01-1.3628-6.5991-1.3628-6.5991l-6.9047-1.9671-6.9332 2.6405s-2.7938-3.4612-2.7938-3.4612l0.27277-0.8236-5.4533 1.3613-8.9982 7.3999-6.5437-8.5357-7.3624 10.153-10.362 23.613 7.6348 0.034 1.3632 6.0499s-3.5448 4.1146-3.5448 4.1146l2.9991 11.275 15.269-1.6143-1.9093 18.959 7.9066 4.4149 1.3637-10.715 6.5433 3.3127s2.4542-6.865 2.4542-6.865l-1.9082-6.3256 5.4535-10.706 6.2706 3.0376 7.9068-3.5545 4.0905-12.633 13.087-7.6649-0.54455-8.2463-10.36-3.3223-3.5443-3.3394" id="path52"/>
          <path d="m927.05 1225.6s-2.9995 6.5888-2.9995 6.5888-7.633-7.7128-7.633-7.7128l-12.269 7.3917-4.0905 12.633-7.9068 3.5545-6.2706-3.0372-5.4535 10.706 1.9082 6.3252-2.4542 6.8649s1.9082 4.9515 1.9082 4.9515l4.3613 16.224s14.176 4.4288 14.176 4.4288l20.72-6.5485s14.175 9.1 14.175 9.1l2.7268-6.8638-4.0888-2.7569 2.7273-11.535 10.086 6.8928 4.6344-1.0886s2.9978 5.7772 2.9978 5.7772l6.2703-4.1078-1.9066-12.37 8.178 0.033-4.3609-4.9564 5.7255-7.6811-8.4497-6.6146s7.9066-8.7759 7.9066-8.7759l-9.5398-10.465-8.7234-1.3942 1.0899 4.949-16.084 0.7876-0.81714-7.1476-6.5426-4.1519" id="path54"/>
          <path d="m932.86 1155.3 7.3472-2.3284s0.4426-4.6357 0.4426-4.6357l14.257 1.3694 1.8697 8.34 10.131 4.6197 7.3723 4.6238-4.1236 3.7139-10.479 25.506 5.9932 4.6254s-1.3416 10.198-2.2558 11.59c-0.91426 1.3916 3.7116 9.2628 3.7116 9.2628l-8.2675 1.8666-2.2676 8.3452h1.379l-8.2796-1.3774 0.93653 4.6328-16.084 1.4156-0.94522-6.95-6.4532-4.6243s-2.7325 6.9558-2.7325 6.9558-7.8447-7.8662-7.8447-7.8662 0.45972-8e-4 0.45972-8e-4l-0.0312-8.3421 8.3867-12.997 0.83401-14.386 7.2113 1.1232 0.47118-2.5003 5.0398-4.6423-2.8117-14.364s-4.8096-7.7008-4.8096-7.7008l1.5433-5.2722" id="path56"/>
          <path d="m956.59 1232.2 2.2676-8.3452 8.2658-2.33s-4.6242-7.4078-3.7099-8.7994c1.374-1.3925 2.2576-11.126 2.2576-11.126l-5.9932-4.6253 10.478-25.97 4.1236-3.7139-7.3723-4.6238-10.131-4.6197-1.8731-9.267 11.946-1.8716 13.747-12.071s3.6743-0.9324 3.6743-0.9324l2.3274 7.876 9.2176 6.4751-4.5816 4.1781s6.0098 9.2604 6.0098 9.2604l-4.0947 11.593 5.5229 1.8455s-0.4411 5.0987-0.4411 5.0987l-6.4422-1.8441 0.0288 7.8786 6.9188 6.4777-6.4134 6.0345s1.8641 6.9486 1.8641 6.9486-5.4906 6.9599-5.4906 6.9599 2.3152 4.6306 2.3152 4.6306l-5.5024 3.7159 1.413 9.2661-10.564 2.3335s-9.6173 9.7468-9.6173 9.7468-9.2278-9.2538-9.2278-9.2538-0.9228-0.9254-0.9228-0.9254" id="path58"/>
          <path d="m773.81 1218.9s-0.27267-0.8256-0.27267-0.8256l-10.636-3.3233-5.9997 3.2847-1.9092-2.7532s5.1812-9.3338 5.1812-9.3338l-3.2734-10.728-6.5454 2.1836-6.0004-2.7628s0.27272 5e-4 0.27272 5e-4 3.5453-4.1153 3.5453-4.1153 0.2724-7.4216 0.2724-7.4216l4.0902-11.536 2.4544-3.0178 8.4546-2.1794 4.9084-14.284s2.182 2.2049 2.182 2.2049l5.1825 12.108s-2.4544 3.2931-2.4544 3.2931l3.2727 1.1072 6.2726-1.3598 10.091 5.7968 13.09-0.7933 4.0902 2.7598-0.27243 2.4719-5.7268-1.6628s-2.4543 4.6674-2.4543 4.6674l-2.3e-4 10.72-2.9996 4.3915-5.1815-4.9602-9.8175 3.2754-1.6365-5.2266s-2.1817 0.5447-2.1817 0.5447l-3.5445 17.584 2.4545 1.9296s0.27278 4.6737 0.27278 4.6737l-5.1808 3.2866" id="path60"/>
          <path d="m779.81 1191.4-3.5445 17.584 2.4545 1.9296s0.2728 4.6737 0.2728 4.6737l-5.1814 3.2866 4.0914 17.326 9.5447 2.7706s12.271-4.9193 12.271-4.9193l10.908-1.8989 24.541-2.1416 10.634-4.9231 6.8171-15.651-0.54537 1.3727-12.27-6.9001-1.9086-10.174-5.7264 1.6357s-5.4538-9.3585-5.4538-9.3585l-8.7262-1.12s-3.5452-5.781-3.5452-5.781l-4.363-1.1086-0.27352 1.6473-5.7268-1.6628s-2.4543 4.6674-2.4543 4.6674l-3.3e-4 10.72s-2.9996 4.3915-2.9996 4.3915l-5.1816-4.9602-9.8175 3.2754-1.6365-5.2266s-2.1805 0.5447-2.1805 0.5447" id="path62"/>
          <path d="m801.82 1276.5 1.8481 2.3143-0.90718 3.2457 6.9202 6.0135 10.554-5.5784s-0.48812-7.4143-0.48812-7.4143l3.6748-0.9328 6.9375 10.648s13.342 2.2954 13.342 2.2954l0.44569-3.7081 15.614-4.6595 1.353-6.9537 3.2166-0.4685 1.769-18.54-15.627 1.4151-2.8009-11.118s3.6642-3.7135 3.6642-3.7135-1.8638-6.4857-1.8638-6.4857l-7.3567 0.011s3.6484-7.8849 3.6484-7.8849l-10.558 4.6514-24.821 2.3562s-11.029 1.8713-11.029 1.8713l-6.8869 2.7917s-0.91612 0.9285-0.91612 0.9285l1.3849 1.3883s4.1688 7.8728 4.1688 7.8728l-10.535 10.677 5.5358 4.6259 8.2769-0.014s1.4346 14.365 1.4346 14.365m62.054-4.7343 4.6081 2.7732-4.6081-2.7732" id="path64"/>
          <path d="m850.35 1341.7-0.46677-1.8528-2.8112-13.897-3.678 0.01s-5.0326 6.4959-5.0326 6.4959l-5.5295-3.2345-6.9036-1.8421s2.2618-9.7353 2.2618-9.7353l-10.131-4.154-8.7963-15.742s0.88234-9.7337 0.88234-9.7337l10.554-5.5784-0.94791-7.4135 3.6748-0.9328 6.9375 10.648 13.802 2.2948 0.44569-3.7082 15.614-4.6595s1.353-6.9536 1.353-6.9536l2.7568-0.4678 7.8333 4.6216 1.7988-10.662 6.4487 3.2336 2.3161 4.6306 3.7406 16.677s14.728 4.6101 14.728 4.6101 20.201-6.9837 20.201-6.9837l13.825 9.2451s0.45968-7e-4 0.45968-7e-4l6.9106 4.1591 5.9826 1.8436s2.7922 9.2627 2.7922 9.2627 6.4318-0.9374 6.4318-0.9374l8.2856 3.2299 6.9133 5.0853-0.89713 6.0249-2.7356 6.0278s-6.8911 0.9383-6.8911 0.9383l-13.817-7.3905-8.2533 5.5738-10.121-2.2998-3.166 13.906-13.797-1.8303-4.5882 2.3245-4.6385-11.113-6.9024-1.8419 1.3618-4.636-9.2028-2.3015s-4.1113 6.9574-4.1113 6.9574l-8.254 5.5742-4.1427-1.3832-1.3495 7.8796s-5.0535 0.9352-5.0535 0.9352l-1.3634 4.1726-7.3802-6.4748-7.3505 1.4024" id="path66"/>
          <path d="m844.49 1374 9.2015-17s-4.6509-4.71-4.6509-4.71l1.8103-11.326s6.4826-0.9544 6.4826-0.9544l7.4377 6.5927s0.44724-4.2469 1.3738-4.2484c0 0 4.6293-0.9515 4.6293-0.9515l1.8229-8.0235 3.7116 1.4092 8.781-5.6762s4.6062-7.0847 4.6062-7.0847l8.3495 2.817-0.91062 4.2476 6.9578 2.3474 4.6766 11.787s-3.6707 9.4416-3.6707 9.4416-3.2551-3.297-3.2551-3.297l-1.8406 3.3056s-0.42793 9.436-0.42793 9.436-3.2304 3.3078-3.2304 3.3078l-2.73 13.214 0.47563 3.3013-3.2374 1.4209-12.091-12.245-7.8809-1.4018-4.6256 1.895s-6.4556 8.0311-6.4556 8.0311l-8.8095-1.872s-2.3147 0.4757-2.3147 0.4757-4.1858-4.2388-4.1858-4.2388" id="path68"/>
          <path d="m1003.9 1346.1-4.0879-3.0311s-2.7244-7.4241-2.7244-7.4241l-5.7234-1.9364s-3.2694-9.3491-3.2694-9.3491l-5.9966-0.036-4.6345 5.2105-6.2689-2.7617 0.54533-1.0976 0.81855-5.4937-6.8138-5.2357-8.4497-3.5909-6.2697 1.36s-2.9974-9.6241-2.9974-9.6241l-5.9969-1.662-6.8146-4.1375-0.27234-0.55s0.27269 0.2729 0.27269 0.2729 2.7268-6.8638 2.7268-6.8638l-4.0888-2.757 2.7273-11.535 10.086 6.8929 4.6344-1.0891s2.9978 5.7777 2.9978 5.7777l6.2703-4.1078-1.9066-12.37 8.178 0.033-4.3609-4.9563s5.7255-7.6811 5.7255-7.6811l-8.4497-6.6146s7.9066-8.776 7.9066-8.776-0.54506-0.8258-0.54506-0.8258 9.5423-9.8713 9.5423-9.8713l10.359-1.8995 25.62 19.02s-0.2726 5e-4 -0.2726 5e-4l1.9064 9.0726 8.1763 4.4155 7.9047-2.1803s7.0849 8.2596 7.0849 8.2596l-0.8191 6.8672-6.8151 6.5795s4.0865 9.6262 4.0865 9.6262-3.8174 8.5088-3.8174 8.5088l5.4493 8.8048-3.2719 6.8616s4.9042 7.7037 4.9042 7.7037-0.2729 3.2964-0.2729 3.2964l7.6296 7.1605s-1.9087 4.3915-1.9087 4.3915l-7.3585-0.034-7.6326 7.1267-0.2736 5.7688-9.5394 2.7264s-4.087-7.1523-4.087-7.1523l-3.2709 2.1908-0.8165-7.145-5.7246 3.861" id="path70"/>
          <path d="m989.75 1267.8 4.9047 10.728-3.2716 4.664s1.635 3.0262 1.635 3.0262l-6.2701 5.7563s-4.088-4.4059-4.088-4.4059l-3.8164 1.6401s-2.9977-4.9527-2.9977-4.9527l3.8174-8.2352 1.3645-11.263 8.7223 3.0424" id="path72"/>
          <path d="m1090.3 1305.4-1.6389 15.932s-17.712-6.0839-17.712-6.0839l-8.1786 12.07-6.5409 1.3595-7.902-6.8863-11.174 2.1733-4.9043-7.704 3.2719-6.8616s-5.4492-8.8044-5.4492-8.8044 3.8173-8.5093 3.8173-8.5093-4.0865-9.6262-4.0865-9.6262l6.8152-6.579 0.8191-6.8677-7.0849-8.2595-7.9048 2.1802-8.1762-4.4149s-1.9065-9.0727-1.9065-9.0727l14.992-3.2632s2.999-4.3897 2.999-4.3897l4.6339-1.6384 5.1779 3.8591 7.9051-4.3783 18.262-2.7061s1.0889 5.7732 1.0889 5.7732l7.0858 1.1153 8.4428 24.749-4.0911 13.18 5.7218 4.9583s-2.1816 6.0396-2.1816 6.0396l7.8999 12.656" id="path74"/>
          <path d="m988.85 1128.8-0.93128-3.2431 10.069-12.066 6.909 3.698s3.1942-6.4936 3.1942-6.4936l10.11-0.9416 4.5801-4.6416s14.25-0.021 14.25-0.021 4.5766-5.5685 4.5766-5.5685l6.88-4.1812s6.9215 7.4059 6.9215 7.4059 3.6589-5.1036 3.6589-5.1036l3.2525 9.7285-10.066 12.992s3.2324 4.1665 3.2324 4.1665l-4.1267 2.7869s2.3032 1.387 2.7679 2.7767c0.9226 0.9256 0.058 16.221 0.075 20.855h-0.9193l-4.583 3.7144s-11.483 2.3343-11.483 2.3343-4.6166-5.5545-4.6166-5.5545l-4.5848 3.2509s-4.5966 0.01-4.5966 0.01l0.4446-4.1718s-2.3236-6.9485-2.3236-6.9485-11.956-1.3728-11.956-1.3728l-1.4129-9.2675-3.6893-3.239s-2.2899 2.3208-2.2899 2.3208l-9.199-1.3771-4.1442-1.8479" id="path76"/>
          <path d="m1070.4 1201.2 1.0881 9.0711-7.3593 1.6313 0.2707 7.4203 9.2664 1.3956 5.7228 2.4864 1.3615 5.2242-8.1767 1.9043-5.9978 7.6805-0.2724-1.1001s-18.262 2.7061-18.262 2.7061l-7.9051 4.3783-5.1779-3.8591-4.6339 1.6384s-2.9991 4.3897-2.9991 4.3897-14.719 3.2637-14.719 3.2637l-25.62-19.021 0.27252-0.2738-1.6341-9.3473 5.7251-3.834-2.4526-4.6776s5.4529-6.5831 5.4529-6.5831-2.1797-6.8758-2.1797-6.8758l6.8159-6.03-7.2097-6.5208 0.12435-7.7875 6.5422 1.9394 0.54602-4.9454-5.8809-2.1852 3.7522-11.105s-5.5006-9.2654-5.5006-9.2654 4.3625-4.3873 4.3625-4.3873l-8.9953-6.0681-2.1797-8.251s-0.27262 4e-4 -0.27262 4e-4l0.8185-4.6705 4.0896-1.9141 4.9067 2.7602 8.3262 0.7844 2.0257-1.4669 4.6412 3.4675 1.089 8.5232 11.994 1.128 2.4521 6.6021-0.8186 4.1205 4.9067-0.2622 4.6346-3.012s4.6329 4.9581 4.6329 4.9581l11.994-1.8952 3.8168-3.5636 1.3629 0.01s5.1772 7.9825 5.1772 7.9825l-5.1794 2.4612 3.2703 2.7557-4.9079 7.1341s6.5403 6.6111 6.5403 6.6111l-8.1787 7.4007 4.9029 15.126 13.628 1.9493" id="path78"/>
          <path d="m1017 1186.2s-4.6326-8.2556-4.6326-8.2556l5.9977-3.8335 1.9093-6.5916 12.266 1.1286 5.4497 9.6317-4.9073 4.3855s-0.2734 3.572-0.2734 3.572l-15.81-0.037" id="path80"/>
        </g>
        <!-- NAZWY WOJEWÓDZTW -->
          <!-- MIASTA OPOLSKIEGO -->
            <g id="miasta-opolskie">
              <circle cx="688" cy="1174" r="4" class="miasto"/>
              <text x="694" y="1177" class="label">Żory</text>
              <circle cx="669" cy="1156" r="4" class="miasto"/>
              <text x="675" y="1159" class="label">Rybnik</text>
              <circle cx="636" cy="1182" r="4" class="miasto"/>
              <text x="642" y="1187" class="label">Wodzisław</text>
              <circle cx="679" cy="1109" r="4" class="miasto"/>
              <text x="667" y="1121" class="label">Gliwice</text>
              <circle cx="708" cy="1103" r="4" class="miasto"/>
              <text x="715" y="1106" class="label">Zabrze</text>
              <circle cx="738" cy="1132" r="4" class="miasto"/>
              <text x="745" y="1135" class="label">Katowice</text>
              <circle cx="734" cy="1158" r="4" class="miasto"/>
              <text x="741" y="1161" class="label">Tychy</text>
              <circle cx="711" cy="1148" r="4" class="miasto"/>
              <text x="716" y="1150" class="label">Mikołów</text>
              <circle cx="771" cy="1142" r="3" class="miasto"/>
              <text x="777" y="1145" class="label">Jaworzno</text>
              <circle cx="877" cy="1171" r="4" class="miasto"/>
              <text x="884" y="1174" class="label">Kraków</text>
            <circle cx="795" cy="1166" r="4" class="miasto"/><text x="802" y="1169" class="label">Chrzanów</text><circle cx="766" cy="1197" r="4" class="miasto"/><text x="773" y="1200" class="label">Oświęcim</text><circle cx="825" cy="1105" r="4" class="miasto"/><text x="832" y="1108" class="label">Olkusz</text><circle cx="579" cy="1021" r="4" class="miasto"/><text x="586" y="1024" class="label">Opole</text><circle cx="617" cy="1100" r="4" class="miasto"/><text x="624" y="1103" class="label">Kędzierzyn-Koźle</text>
              <circle cx="650" cy="1205" r="4" class="miasto"/>
              <text x="622" y="1210" class="label">Jastrzębie-Zdrój</text>
              <circle cx="624" cy="1170" r="4" class="miasto"/>
              <text x="589" y="1173" class="label">Racibórz</text>
            </g>
            <!-- MIASTA ŚLĄSKIEGO -->
              <g id="miasta-slaskie">
              </g>
              <!-- MIASTA MAŁOPOLSKIEGO -->
                <g id="miasta-malopolskie">
                </g>
                <!-- LEGENDA -->
                </svg>